<svg xmlns="http://www.w3.org/2000/svg" width="198" height="12" viewBox="0 0 198 12" fill="none">
  <path d="M0.0113678 11.7955V0.159091H7.85228V2.1875H2.4716V4.96023H7.44887V6.98864H2.4716V9.76705H7.875V11.7955H0.0113678Z" fill="white"/>
  <path d="M19.5412 0.159091V11.7955H17.4162L12.3537 4.47159H12.2685V11.7955H9.80824V0.159091H11.9673L16.9901 7.47727H17.0923V0.159091H19.5412Z" fill="white"/>
  <path d="M21.5739 11.7955V0.159091H29.4148V2.1875H24.0341V4.96023H29.0114V6.98864H24.0341V9.76705H29.4375V11.7955H21.5739Z" fill="white"/>
  <path d="M31.3707 11.7955V0.159091H35.9617C36.8404 0.159091 37.5904 0.316288 38.2117 0.630682C38.8367 0.941288 39.312 1.38258 39.6378 1.95455C39.9673 2.52273 40.1321 3.19129 40.1321 3.96023C40.1321 4.73295 39.9654 5.39773 39.6321 5.95455C39.2988 6.50758 38.8158 6.93182 38.1832 7.22727C37.5545 7.52273 36.7931 7.67045 35.8992 7.67045H32.8253V5.69318H35.5014C35.9711 5.69318 36.3613 5.62879 36.6719 5.5C36.9825 5.37121 37.2135 5.17803 37.3651 4.92045C37.5204 4.66288 37.598 4.3428 37.598 3.96023C37.598 3.57386 37.5204 3.24811 37.3651 2.98295C37.2135 2.7178 36.9806 2.51705 36.6662 2.38068C36.3556 2.24053 35.9635 2.17045 35.4901 2.17045H33.831V11.7955H31.3707ZM37.6548 6.5L40.5469 11.7955H37.831L35.0014 6.5H37.6548Z" fill="white"/>
  <path d="M49.5867 3.92045C49.5071 3.64394 49.3954 3.39962 49.2514 3.1875C49.1075 2.97159 48.9313 2.78977 48.723 2.64205C48.5185 2.49053 48.2836 2.375 48.0185 2.29545C47.7571 2.21591 47.4673 2.17614 47.1492 2.17614C46.5545 2.17614 46.0317 2.32386 45.581 2.61932C45.134 2.91477 44.7855 3.3447 44.5355 3.90909C44.2855 4.4697 44.1605 5.1553 44.1605 5.96591C44.1605 6.77652 44.2836 7.46591 44.5298 8.03409C44.776 8.60227 45.1245 9.03599 45.5753 9.33523C46.026 9.63068 46.5582 9.77841 47.1719 9.77841C47.7287 9.77841 48.2041 9.67992 48.598 9.48295C48.9957 9.2822 49.2988 9 49.5071 8.63636C49.7192 8.27273 49.8253 7.8428 49.8253 7.34659L50.3253 7.42045H47.3253V5.56818H52.1946V7.03409C52.1946 8.05682 51.9787 8.93561 51.5469 9.67045C51.1151 10.4015 50.5204 10.9659 49.7628 11.3636C49.0052 11.7576 48.1378 11.9545 47.1605 11.9545C46.0696 11.9545 45.1113 11.714 44.2855 11.233C43.4598 10.7481 42.8158 10.0606 42.3537 9.17045C41.8954 8.27652 41.6662 7.21591 41.6662 5.98864C41.6662 5.04545 41.8026 4.20455 42.0753 3.46591C42.3518 2.72348 42.7382 2.0947 43.2344 1.57955C43.7306 1.06439 44.3082 0.672348 44.9673 0.403409C45.6264 0.13447 46.3404 0 47.1094 0C47.7685 0 48.3821 0.096591 48.9503 0.289773C49.5185 0.479167 50.0223 0.748106 50.4617 1.09659C50.9048 1.44508 51.2666 1.85985 51.5469 2.34091C51.8272 2.81818 52.0071 3.3447 52.0867 3.92045H49.5867Z" fill="white"/>
  <path d="M52.892 0.159091H55.6477L58.3011 5.17045H58.4148L61.0682 0.159091H63.8239L59.5795 7.68182V11.7955H57.1364V7.68182L52.892 0.159091Z" fill="white"/>
  <path d="M68.8707 0.159091H71.9048L75.1094 7.97727H75.2457L78.4503 0.159091H81.4844V11.7955H79.098V4.22159H79.0014L75.9901 11.7386H74.3651L71.3537 4.19318H71.2571V11.7955H68.8707V0.159091Z" fill="white"/>
  <path d="M94.2046 5.97727C94.2046 7.24621 93.964 8.32576 93.483 9.21591C93.0057 10.1061 92.3542 10.786 91.5284 11.2557C90.7064 11.7216 89.7822 11.9545 88.7557 11.9545C87.7216 11.9545 86.7936 11.7197 85.9716 11.25C85.1496 10.7803 84.5 10.1004 84.0227 9.21023C83.5455 8.32008 83.3068 7.24242 83.3068 5.97727C83.3068 4.70833 83.5455 3.62879 84.0227 2.73864C84.5 1.84848 85.1496 1.17045 85.9716 0.704546C86.7936 0.234849 87.7216 0 88.7557 0C89.7822 0 90.7064 0.234849 91.5284 0.704546C92.3542 1.17045 93.0057 1.84848 93.483 2.73864C93.964 3.62879 94.2046 4.70833 94.2046 5.97727ZM91.7102 5.97727C91.7102 5.1553 91.5871 4.46212 91.3409 3.89773C91.0985 3.33333 90.7557 2.9053 90.3125 2.61364C89.8693 2.32197 89.3504 2.17614 88.7557 2.17614C88.161 2.17614 87.6421 2.32197 87.1989 2.61364C86.7557 2.9053 86.411 3.33333 86.1648 3.89773C85.9224 4.46212 85.8011 5.1553 85.8011 5.97727C85.8011 6.79924 85.9224 7.49242 86.1648 8.05682C86.411 8.62121 86.7557 9.04924 87.1989 9.34091C87.6421 9.63258 88.161 9.77841 88.7557 9.77841C89.3504 9.77841 89.8693 9.63258 90.3125 9.34091C90.7557 9.04924 91.0985 8.62121 91.3409 8.05682C91.5871 7.49242 91.7102 6.79924 91.7102 5.97727Z" fill="white"/>
  <path d="M105.76 0.159091V11.7955H103.635L98.5724 4.47159H98.4872V11.7955H96.027V0.159091H98.1861L103.209 7.47727H103.311V0.159091H105.76Z" fill="white"/>
  <path d="M107.349 2.1875V0.159091H116.906V2.1875H113.344V11.7955H110.912V2.1875H107.349Z" fill="white"/>
  <path d="M119.064 11.7955H116.428L120.445 0.159091H123.615L127.626 11.7955H124.99L122.075 2.81818H121.984L119.064 11.7955ZM118.899 7.22159H125.126V9.14205H118.899V7.22159Z" fill="white"/>
  <path d="M133.686 0.159091H136.118V8.27273C136.118 9.02273 135.949 9.67424 135.612 10.2273C135.279 10.7803 134.815 11.2064 134.22 11.5057C133.625 11.8049 132.934 11.9545 132.146 11.9545C131.446 11.9545 130.809 11.8314 130.237 11.5852C129.669 11.3352 129.218 10.9564 128.885 10.4489C128.552 9.9375 128.387 9.29545 128.391 8.52273H130.839C130.847 8.82955 130.91 9.0928 131.027 9.3125C131.148 9.52841 131.313 9.69508 131.521 9.8125C131.733 9.92614 131.983 9.98295 132.271 9.98295C132.574 9.98295 132.83 9.91856 133.038 9.78977C133.25 9.6572 133.411 9.46402 133.521 9.21023C133.631 8.95644 133.686 8.64394 133.686 8.27273V0.159091Z" fill="white"/>
  <path d="M149.571 3.92045C149.491 3.64394 149.38 3.39962 149.236 3.1875C149.092 2.97159 148.916 2.78977 148.707 2.64205C148.503 2.49053 148.268 2.375 148.003 2.29545C147.741 2.21591 147.452 2.17614 147.134 2.17614C146.539 2.17614 146.016 2.32386 145.565 2.61932C145.118 2.91477 144.77 3.3447 144.52 3.90909C144.27 4.4697 144.145 5.1553 144.145 5.96591C144.145 6.77652 144.268 7.46591 144.514 8.03409C144.76 8.60227 145.109 9.03599 145.56 9.33523C146.01 9.63068 146.543 9.77841 147.156 9.77841C147.713 9.77841 148.188 9.67992 148.582 9.48295C148.98 9.2822 149.283 9 149.491 8.63636C149.704 8.27273 149.81 7.8428 149.81 7.34659L150.31 7.42045H147.31V5.56818H152.179V7.03409C152.179 8.05682 151.963 8.93561 151.531 9.67045C151.099 10.4015 150.505 10.9659 149.747 11.3636C148.99 11.7576 148.122 11.9545 147.145 11.9545C146.054 11.9545 145.096 11.714 144.27 11.233C143.444 10.7481 142.8 10.0606 142.338 9.17045C141.88 8.27652 141.651 7.21591 141.651 5.98864C141.651 5.04545 141.787 4.20455 142.06 3.46591C142.336 2.72348 142.723 2.0947 143.219 1.57955C143.715 1.06439 144.293 0.672348 144.952 0.403409C145.611 0.13447 146.325 0 147.094 0C147.753 0 148.366 0.096591 148.935 0.289773C149.503 0.479167 150.007 0.748106 150.446 1.09659C150.889 1.44508 151.251 1.85985 151.531 2.34091C151.812 2.81818 151.991 3.3447 152.071 3.92045H149.571Z" fill="white"/>
  <path d="M154.027 11.7955V0.159091H158.618C159.497 0.159091 160.247 0.316288 160.868 0.630682C161.493 0.941288 161.968 1.38258 162.294 1.95455C162.624 2.52273 162.788 3.19129 162.788 3.96023C162.788 4.73295 162.622 5.39773 162.288 5.95455C161.955 6.50758 161.472 6.93182 160.839 7.22727C160.211 7.52273 159.449 7.67045 158.555 7.67045H155.482V5.69318H158.158C158.627 5.69318 159.018 5.62879 159.328 5.5C159.639 5.37121 159.87 5.17803 160.021 4.92045C160.177 4.66288 160.254 4.3428 160.254 3.96023C160.254 3.57386 160.177 3.24811 160.021 2.98295C159.87 2.7178 159.637 2.51705 159.322 2.38068C159.012 2.24053 158.62 2.17045 158.146 2.17045H156.487V11.7955H154.027ZM160.311 6.5L163.203 11.7955H160.487L157.658 6.5H160.311Z" fill="white"/>
  <path d="M175.22 5.97727C175.22 7.24621 174.98 8.32576 174.499 9.21591C174.021 10.1061 173.37 10.786 172.544 11.2557C171.722 11.7216 170.798 11.9545 169.771 11.9545C168.737 11.9545 167.809 11.7197 166.987 11.25C166.165 10.7803 165.516 10.1004 165.038 9.21023C164.561 8.32008 164.322 7.24242 164.322 5.97727C164.322 4.70833 164.561 3.62879 165.038 2.73864C165.516 1.84848 166.165 1.17045 166.987 0.704546C167.809 0.234849 168.737 0 169.771 0C170.798 0 171.722 0.234849 172.544 0.704546C173.37 1.17045 174.021 1.84848 174.499 2.73864C174.98 3.62879 175.22 4.70833 175.22 5.97727ZM172.726 5.97727C172.726 5.1553 172.603 4.46212 172.357 3.89773C172.114 3.33333 171.771 2.9053 171.328 2.61364C170.885 2.32197 170.366 2.17614 169.771 2.17614C169.177 2.17614 168.658 2.32197 168.214 2.61364C167.771 2.9053 167.427 3.33333 167.18 3.89773C166.938 4.46212 166.817 5.1553 166.817 5.97727C166.817 6.79924 166.938 7.49242 167.18 8.05682C167.427 8.62121 167.771 9.04924 168.214 9.34091C168.658 9.63258 169.177 9.77841 169.771 9.77841C170.366 9.77841 170.885 9.63258 171.328 9.34091C171.771 9.04924 172.114 8.62121 172.357 8.05682C172.603 7.49242 172.726 6.79924 172.726 5.97727Z" fill="white"/>
  <path d="M184.23 0.159091H186.69V7.71591C186.69 8.56439 186.488 9.30682 186.082 9.94318C185.681 10.5795 185.118 11.0758 184.395 11.4318C183.671 11.7841 182.829 11.9602 181.866 11.9602C180.901 11.9602 180.056 11.7841 179.332 11.4318C178.609 11.0758 178.046 10.5795 177.645 9.94318C177.243 9.30682 177.043 8.56439 177.043 7.71591V0.159091H179.503V7.50568C179.503 7.94886 179.599 8.3428 179.793 8.6875C179.99 9.0322 180.266 9.30303 180.622 9.5C180.978 9.69697 181.393 9.79545 181.866 9.79545C182.344 9.79545 182.759 9.69697 183.111 9.5C183.467 9.30303 183.741 9.0322 183.935 8.6875C184.132 8.3428 184.23 7.94886 184.23 7.50568V0.159091Z" fill="white"/>
  <path d="M188.714 11.7955V0.159091H193.305C194.188 0.159091 194.94 0.327652 195.561 0.664773C196.182 0.998106 196.656 1.46212 196.982 2.05682C197.311 2.64773 197.476 3.32955 197.476 4.10227C197.476 4.875 197.309 5.55682 196.976 6.14773C196.643 6.73864 196.16 7.19886 195.527 7.52841C194.898 7.85795 194.137 8.02273 193.243 8.02273H190.317V6.05114H192.845C193.319 6.05114 193.709 5.9697 194.016 5.80682C194.326 5.64015 194.557 5.41098 194.709 5.11932C194.864 4.82386 194.942 4.48485 194.942 4.10227C194.942 3.71591 194.864 3.37879 194.709 3.09091C194.557 2.79924 194.326 2.57386 194.016 2.41477C193.705 2.25189 193.311 2.17045 192.834 2.17045H191.175V11.7955H188.714Z" fill="white"/>
</svg>