<svg width="153" height="12" viewBox="0 0 153 12" fill="none" xmlns="http://www.w3.org/2000/svg">
<path d="M0 11.7701V0.229855H8.96587V2.58388H3.06016V5.16777H8.29025V7.47424H3.06016V11.7701H0Z" fill="#001935"/>
<path d="M10.6589 11.7701V0.229855H13.7429V11.7701H10.6589Z" fill="#001935"/>
<path d="M16.2467 11.7701V0.229855H21.1827C22.7777 0.229855 24.0309 0.549538 24.9423 1.1889C25.8537 1.82299 26.3094 2.78203 26.3094 4.06605C26.3094 5.31836 25.8511 6.27213 24.9343 6.92734C24.0176 7.58256 22.7644 7.92602 21.1747 7.95773H19.3068V11.7701H16.2467ZM19.275 5.71466H21.1032C21.8503 5.71466 22.3961 5.57464 22.7406 5.29458C23.085 5.00925 23.2572 4.6103 23.2572 4.09775C23.2625 3.53765 23.0929 3.13606 22.7485 2.893C22.4094 2.64465 21.8609 2.52048 21.1032 2.52048H19.275V5.71466ZM23.5513 11.7701L20.4276 6.45178L23.6785 6.45971L27.0248 11.7701H23.5513Z" fill="#001935"/>
<path d="M28.3919 11.7701V0.229855H37.5009V2.58388H31.4282V4.68428H36.6822V6.99075H31.4282V9.43197H37.5962V11.7701H28.3919Z" fill="#001935"/>
<path d="M39.4244 11.7701V0.229855H44.7817C46.329 0.229855 47.5212 0.55218 48.3585 1.19683C49.1957 1.84148 49.6143 2.83223 49.6143 4.16909C49.6143 5.49538 49.1957 6.49406 48.3585 7.16513C47.5265 7.83091 46.3316 8.15324 44.7737 8.1321H42.4845V11.7701H39.4244ZM42.4845 5.84941H44.4876C45.2082 5.84941 45.7355 5.71731 46.0693 5.4531C46.4031 5.18362 46.5701 4.75826 46.5701 4.17701C46.5701 3.59577 46.4031 3.17569 46.0693 2.91678C45.7355 2.65786 45.2082 2.5284 44.4876 2.5284H42.4845V5.84941Z" fill="#001935"/>
<path d="M51.2517 11.7701V0.229855H56.1877C57.7827 0.229855 59.0359 0.549538 59.9473 1.1889C60.8587 1.82299 61.3145 2.78203 61.3145 4.06605C61.3145 5.31836 60.8561 6.27213 59.9394 6.92734C59.0227 7.58256 57.7694 7.92602 56.1798 7.95773H54.3119V11.7701H51.2517ZM54.2801 5.71466H56.1082C56.8554 5.71466 57.4012 5.57464 57.7456 5.29458C58.09 5.00925 58.2622 4.6103 58.2622 4.09775C58.2675 3.53765 58.098 3.13606 57.7535 2.893C57.4144 2.64465 56.866 2.52048 56.1082 2.52048H54.2801V5.71466ZM58.5563 11.7701L55.4326 6.45178L58.6835 6.45971L62.0298 11.7701H58.5563Z" fill="#001935"/>
<path d="M62.8962 6.23778V5.76222C62.8962 3.79657 63.4658 2.3461 64.6051 1.41083C65.7497 0.470277 67.2228 0 69.0245 0C70.8261 0 72.3098 0.470277 73.4756 1.41083C74.6414 2.3461 75.2243 3.79657 75.2243 5.76222V6.23778C75.2243 8.20343 74.6414 9.65654 73.4756 10.5971C72.3098 11.5324 70.8261 12 69.0245 12C67.2281 12 65.7577 11.5324 64.6131 10.5971C63.4685 9.65654 62.8962 8.20343 62.8962 6.23778ZM66.0438 6.45971C66.0438 7.64861 66.314 8.4782 66.8545 8.94848C67.4003 9.41876 68.1236 9.6539 69.0245 9.6539C69.9306 9.6539 70.6645 9.41876 71.2262 8.94848C71.7932 8.4782 72.0767 7.64861 72.0767 6.45971V5.53236C72.0767 4.34875 71.7958 3.52444 71.2341 3.05945C70.6725 2.58917 69.9359 2.35403 69.0245 2.35403C68.1236 2.35403 67.4003 2.58917 66.8545 3.05945C66.314 3.52444 66.0438 4.34875 66.0438 5.53236V6.45971Z" fill="#001935"/>
<path d="M75.9237 2.58388V0.229855H86.7495V2.58388H82.8707V11.7701H79.8185V2.58388H75.9237Z" fill="#001935"/>
<path d="M88.1803 11.7701V0.229855H97.2892V2.58388H91.2166V4.68428H96.4705V6.99075H91.2166V9.43197H97.3846V11.7701H88.1803Z" fill="#001935"/>
<path d="M98.712 6.23778V5.76222C98.712 3.82827 99.2684 2.38573 100.381 1.43461C101.499 0.478203 102.972 0 104.801 0C106.459 0 107.779 0.338177 108.759 1.01453C109.739 1.6856 110.277 2.76882 110.372 4.2642L110.38 4.52576H107.257L107.249 4.21664C107.201 3.52972 106.949 3.04888 106.494 2.77411C106.038 2.49406 105.45 2.35403 104.729 2.35403C103.86 2.35403 103.166 2.59709 102.646 3.08322C102.127 3.56407 101.868 4.34082 101.868 5.41347V6.58653C101.868 7.77015 102.125 8.5786 102.639 9.01189C103.153 9.43989 103.855 9.6539 104.745 9.6539C105.63 9.6539 106.268 9.47688 106.66 9.12285C107.053 8.76354 107.251 8.3144 107.257 7.77543L107.265 7.48217H110.388V7.7675C110.372 9.15192 109.864 10.2034 108.862 10.9221C107.866 11.6407 106.512 12 104.801 12C102.967 12 101.494 11.5297 100.381 10.5892C99.2684 9.64333 98.712 8.19287 98.712 6.23778Z" fill="#001935"/>
<path d="M110.452 2.58388V0.229855H121.278V2.58388H117.399V11.7701H114.347V2.58388H110.452Z" fill="#001935"/>
<path d="M122.7 11.7701V0.229855H125.784V11.7701H122.7Z" fill="#001935"/>
<path d="M127.787 6.23778V5.76222C127.787 3.79657 128.357 2.3461 129.496 1.41083C130.641 0.470277 132.114 0 133.916 0C135.717 0 137.201 0.470277 138.367 1.41083C139.533 2.3461 140.116 3.79657 140.116 5.76222V6.23778C140.116 8.20343 139.533 9.65654 138.367 10.5971C137.201 11.5324 135.717 12 133.916 12C132.119 12 130.649 11.5324 129.504 10.5971C128.36 9.65654 127.787 8.20343 127.787 6.23778ZM130.935 6.45971C130.935 7.64861 131.205 8.4782 131.746 8.94848C132.292 9.41876 133.015 9.6539 133.916 9.6539C134.822 9.6539 135.556 9.41876 136.117 8.94848C136.684 8.4782 136.968 7.64861 136.968 6.45971V5.53236C136.968 4.34875 136.687 3.52444 136.125 3.05945C135.564 2.58917 134.827 2.35403 133.916 2.35403C133.015 2.35403 132.292 2.58917 131.746 3.05945C131.205 3.52444 130.935 4.34875 130.935 5.53236V6.45971Z" fill="#001935"/>
<path d="M142.119 11.7701V0.229855H145.218L149.614 6.45178C149.773 6.68428 149.932 6.96169 150.091 7.28402C150.25 7.60106 150.361 7.84941 150.425 8.02906H150.52C150.494 7.84412 150.467 7.6354 150.441 7.40291C150.419 7.17041 150.409 6.9432 150.409 6.72127V0.229855H153V11.7701H149.805L145.457 5.70674C145.261 5.41612 145.094 5.10964 144.956 4.78732C144.818 4.45971 144.728 4.20872 144.686 4.03435H144.575C144.601 4.22457 144.628 4.43857 144.654 4.67635C144.681 4.91413 144.694 5.14135 144.694 5.35799V11.7701H142.119Z" fill="#001935"/>
</svg>
