<svg xmlns="http://www.w3.org/2000/svg" width="198" height="13" viewBox="0 0 198 13" fill="none">
  <path d="M0.0113678 12.7466V1.11026H7.85228V3.13867H2.4716V5.9114H7.44887V7.93981H2.4716V10.7182H7.875V12.7466H0.0113678Z" fill="#001935"/>
  <path d="M19.5412 1.11026V12.7466H17.4162L12.3537 5.42276H12.2685V12.7466H9.80824V1.11026H11.9673L16.9901 8.42844H17.0923V1.11026H19.5412Z" fill="#001935"/>
  <path d="M21.5739 12.7466V1.11026H29.4148V3.13867H24.0341V5.9114H29.0114V7.93981H24.0341V10.7182H29.4375V12.7466H21.5739Z" fill="#001935"/>
  <path d="M31.3707 12.7466V1.11026H35.9617C36.8404 1.11026 37.5904 1.26746 38.2117 1.58185C38.8367 1.89246 39.312 2.33375 39.6378 2.90572C39.9673 3.4739 40.1321 4.14246 40.1321 4.9114C40.1321 5.68413 39.9654 6.3489 39.6321 6.90572C39.2988 7.45875 38.8158 7.88299 38.1832 8.17844C37.5545 8.4739 36.7931 8.62163 35.8992 8.62163H32.8253V6.64435H35.5014C35.9711 6.64435 36.3613 6.57996 36.6719 6.45117C36.9825 6.32238 37.2135 6.1292 37.3651 5.87163C37.5204 5.61405 37.598 5.29397 37.598 4.9114C37.598 4.52504 37.5204 4.19928 37.3651 3.93413C37.2135 3.66897 36.9806 3.46822 36.6662 3.33185C36.3556 3.1917 35.9635 3.12163 35.4901 3.12163H33.831V12.7466H31.3707ZM37.6548 7.45117L40.5469 12.7466H37.831L35.0014 7.45117H37.6548Z" fill="#001935"/>
  <path d="M49.5867 4.87163C49.5071 4.59511 49.3954 4.35079 49.2514 4.13867C49.1075 3.92276 48.9313 3.74095 48.723 3.59322C48.5185 3.4417 48.2836 3.32617 48.0185 3.24663C47.7571 3.16708 47.4673 3.12731 47.1492 3.12731C46.5545 3.12731 46.0317 3.27504 45.581 3.57049C45.134 3.86594 44.7855 4.29587 44.5355 4.86026C44.2855 5.42087 44.1605 6.10647 44.1605 6.91708C44.1605 7.72769 44.2836 8.41708 44.5298 8.98526C44.776 9.55344 45.1245 9.98716 45.5753 10.2864C46.026 10.5819 46.5582 10.7296 47.1719 10.7296C47.7287 10.7296 48.2041 10.6311 48.598 10.4341C48.9957 10.2334 49.2988 9.95117 49.5071 9.58754C49.7192 9.2239 49.8253 8.79398 49.8253 8.29776L50.3253 8.37163H47.3253V6.51935H52.1946V7.98526C52.1946 9.00799 51.9787 9.88678 51.5469 10.6216C51.1151 11.3527 50.5204 11.9171 49.7628 12.3148C49.0052 12.7087 48.1378 12.9057 47.1605 12.9057C46.0696 12.9057 45.1113 12.6652 44.2855 12.1841C43.4598 11.6993 42.8158 11.0118 42.3537 10.1216C41.8954 9.22769 41.6662 8.16708 41.6662 6.93981C41.6662 5.99663 41.8026 5.15572 42.0753 4.41708C42.3518 3.67466 42.7382 3.04587 43.2344 2.53072C43.7306 2.01557 44.3082 1.62352 44.9673 1.35458C45.6264 1.08564 46.3404 0.951172 47.1094 0.951172C47.7685 0.951172 48.3821 1.04776 48.9503 1.24094C49.5185 1.43034 50.0223 1.69928 50.4617 2.04776C50.9048 2.39625 51.2666 2.81102 51.5469 3.29208C51.8272 3.76935 52.0071 4.29587 52.0867 4.87163H49.5867Z" fill="#001935"/>
  <path d="M52.892 1.11026H55.6477L58.3011 6.12163H58.4148L61.0682 1.11026H63.8239L59.5795 8.63299V12.7466H57.1364V8.63299L52.892 1.11026Z" fill="#001935"/>
  <path d="M68.8707 1.11026H71.9048L75.1094 8.92844H75.2457L78.4503 1.11026H81.4844V12.7466H79.098V5.17276H79.0014L75.9901 12.6898H74.3651L71.3537 5.14435H71.2571V12.7466H68.8707V1.11026Z" fill="#001935"/>
  <path d="M94.2046 6.92844C94.2046 8.19738 93.964 9.27693 93.483 10.1671C93.0057 11.0572 92.3542 11.7372 91.5284 12.2069C90.7064 12.6728 89.7822 12.9057 88.7557 12.9057C87.7216 12.9057 86.7936 12.6709 85.9716 12.2012C85.1496 11.7315 84.5 11.0516 84.0227 10.1614C83.5455 9.27125 83.3068 8.1936 83.3068 6.92844C83.3068 5.65951 83.5455 4.57996 84.0227 3.68981C84.5 2.79966 85.1496 2.12163 85.9716 1.65572C86.7936 1.18602 87.7216 0.951172 88.7557 0.951172C89.7822 0.951172 90.7064 1.18602 91.5284 1.65572C92.3542 2.12163 93.0057 2.79966 93.483 3.68981C93.964 4.57996 94.2046 5.65951 94.2046 6.92844ZM91.7102 6.92844C91.7102 6.10648 91.5871 5.41329 91.3409 4.8489C91.0985 4.28451 90.7557 3.85648 90.3125 3.56481C89.8693 3.27314 89.3504 3.12731 88.7557 3.12731C88.161 3.12731 87.6421 3.27314 87.1989 3.56481C86.7557 3.85648 86.411 4.28451 86.1648 4.8489C85.9224 5.41329 85.8011 6.10648 85.8011 6.92844C85.8011 7.75041 85.9224 8.4436 86.1648 9.00799C86.411 9.57238 86.7557 10.0004 87.1989 10.2921C87.6421 10.5837 88.161 10.7296 88.7557 10.7296C89.3504 10.7296 89.8693 10.5837 90.3125 10.2921C90.7557 10.0004 91.0985 9.57238 91.3409 9.00799C91.5871 8.4436 91.7102 7.75041 91.7102 6.92844Z" fill="#001935"/>
  <path d="M105.76 1.11026V12.7466H103.635L98.5724 5.42276H98.4872V12.7466H96.027V1.11026H98.1861L103.209 8.42844H103.311V1.11026H105.76Z" fill="#001935"/>
  <path d="M107.349 3.13867V1.11026H116.906V3.13867H113.344V12.7466H110.912V3.13867H107.349Z" fill="#001935"/>
  <path d="M119.064 12.7466H116.428L120.445 1.11026H123.615L127.626 12.7466H124.99L122.075 3.76935H121.984L119.064 12.7466ZM118.899 8.17276H125.126V10.0932H118.899V8.17276Z" fill="#001935"/>
  <path d="M133.686 1.11026H136.118V9.2239C136.118 9.9739 135.949 10.6254 135.612 11.1784C135.279 11.7315 134.815 12.1576 134.22 12.4569C133.625 12.7561 132.934 12.9057 132.146 12.9057C131.446 12.9057 130.809 12.7826 130.237 12.5364C129.669 12.2864 129.218 11.9076 128.885 11.4C128.552 10.8887 128.387 10.2466 128.391 9.4739H130.839C130.847 9.78072 130.91 10.044 131.027 10.2637C131.148 10.4796 131.313 10.6462 131.521 10.7637C131.733 10.8773 131.983 10.9341 132.271 10.9341C132.574 10.9341 132.83 10.8697 133.038 10.7409C133.25 10.6084 133.411 10.4152 133.521 10.1614C133.631 9.90761 133.686 9.59511 133.686 9.2239V1.11026Z" fill="#001935"/>
  <path d="M149.571 4.87163C149.491 4.59511 149.38 4.35079 149.236 4.13867C149.092 3.92276 148.916 3.74095 148.707 3.59322C148.503 3.4417 148.268 3.32617 148.003 3.24663C147.741 3.16708 147.452 3.12731 147.134 3.12731C146.539 3.12731 146.016 3.27504 145.565 3.57049C145.118 3.86594 144.77 4.29587 144.52 4.86026C144.27 5.42087 144.145 6.10647 144.145 6.91708C144.145 7.72769 144.268 8.41708 144.514 8.98526C144.76 9.55344 145.109 9.98716 145.56 10.2864C146.01 10.5819 146.543 10.7296 147.156 10.7296C147.713 10.7296 148.188 10.6311 148.582 10.4341C148.98 10.2334 149.283 9.95117 149.491 9.58754C149.704 9.2239 149.81 8.79398 149.81 8.29776L150.31 8.37163H147.31V6.51935H152.179V7.98526C152.179 9.00799 151.963 9.88678 151.531 10.6216C151.099 11.3527 150.505 11.9171 149.747 12.3148C148.99 12.7087 148.122 12.9057 147.145 12.9057C146.054 12.9057 145.096 12.6652 144.27 12.1841C143.444 11.6993 142.8 11.0118 142.338 10.1216C141.88 9.22769 141.651 8.16708 141.651 6.93981C141.651 5.99663 141.787 5.15572 142.06 4.41708C142.336 3.67466 142.723 3.04587 143.219 2.53072C143.715 2.01557 144.293 1.62352 144.952 1.35458C145.611 1.08564 146.325 0.951172 147.094 0.951172C147.753 0.951172 148.366 1.04776 148.935 1.24094C149.503 1.43034 150.007 1.69928 150.446 2.04776C150.889 2.39625 151.251 2.81102 151.531 3.29208C151.812 3.76935 151.991 4.29587 152.071 4.87163H149.571Z" fill="#001935"/>
  <path d="M154.027 12.7466V1.11026H158.618C159.497 1.11026 160.247 1.26746 160.868 1.58185C161.493 1.89246 161.968 2.33375 162.294 2.90572C162.624 3.4739 162.788 4.14246 162.788 4.9114C162.788 5.68413 162.622 6.3489 162.288 6.90572C161.955 7.45875 161.472 7.88299 160.839 8.17844C160.211 8.4739 159.449 8.62163 158.555 8.62163H155.482V6.64435H158.158C158.627 6.64435 159.018 6.57996 159.328 6.45117C159.639 6.32238 159.87 6.1292 160.021 5.87163C160.177 5.61405 160.254 5.29397 160.254 4.9114C160.254 4.52504 160.177 4.19928 160.021 3.93413C159.87 3.66897 159.637 3.46822 159.322 3.33185C159.012 3.1917 158.62 3.12163 158.146 3.12163H156.487V12.7466H154.027ZM160.311 7.45117L163.203 12.7466H160.487L157.658 7.45117H160.311Z" fill="#001935"/>
  <path d="M175.22 6.92844C175.22 8.19738 174.98 9.27693 174.499 10.1671C174.021 11.0572 173.37 11.7372 172.544 12.2069C171.722 12.6728 170.798 12.9057 169.771 12.9057C168.737 12.9057 167.809 12.6709 166.987 12.2012C166.165 11.7315 165.516 11.0516 165.038 10.1614C164.561 9.27125 164.322 8.1936 164.322 6.92844C164.322 5.65951 164.561 4.57996 165.038 3.68981C165.516 2.79966 166.165 2.12163 166.987 1.65572C167.809 1.18602 168.737 0.951172 169.771 0.951172C170.798 0.951172 171.722 1.18602 172.544 1.65572C173.37 2.12163 174.021 2.79966 174.499 3.68981C174.98 4.57996 175.22 5.65951 175.22 6.92844ZM172.726 6.92844C172.726 6.10648 172.603 5.41329 172.357 4.8489C172.114 4.28451 171.771 3.85648 171.328 3.56481C170.885 3.27314 170.366 3.12731 169.771 3.12731C169.177 3.12731 168.658 3.27314 168.214 3.56481C167.771 3.85648 167.427 4.28451 167.18 4.8489C166.938 5.41329 166.817 6.10648 166.817 6.92844C166.817 7.75041 166.938 8.4436 167.18 9.00799C167.427 9.57238 167.771 10.0004 168.214 10.2921C168.658 10.5837 169.177 10.7296 169.771 10.7296C170.366 10.7296 170.885 10.5837 171.328 10.2921C171.771 10.0004 172.114 9.57238 172.357 9.00799C172.603 8.4436 172.726 7.75041 172.726 6.92844Z" fill="#001935"/>
  <path d="M184.23 1.11026H186.69V8.66708C186.69 9.51557 186.488 10.258 186.082 10.8944C185.681 11.5307 185.118 12.0269 184.395 12.383C183.671 12.7353 182.829 12.9114 181.866 12.9114C180.901 12.9114 180.056 12.7353 179.332 12.383C178.609 12.0269 178.046 11.5307 177.645 10.8944C177.243 10.258 177.043 9.51557 177.043 8.66708V1.11026H179.503V8.45685C179.503 8.90004 179.599 9.29397 179.793 9.63867C179.99 9.98337 180.266 10.2542 180.622 10.4512C180.978 10.6481 181.393 10.7466 181.866 10.7466C182.344 10.7466 182.759 10.6481 183.111 10.4512C183.467 10.2542 183.741 9.98337 183.935 9.63867C184.132 9.29397 184.23 8.90004 184.23 8.45685V1.11026Z" fill="#001935"/>
  <path d="M188.714 12.7466V1.11026H193.305C194.188 1.11026 194.94 1.27882 195.561 1.61594C196.182 1.94928 196.656 2.41329 196.982 3.00799C197.311 3.5989 197.476 4.28072 197.476 5.05344C197.476 5.82617 197.309 6.50799 196.976 7.0989C196.643 7.68981 196.16 8.15004 195.527 8.47958C194.898 8.80913 194.137 8.9739 193.243 8.9739H190.317V7.00231H192.845C193.319 7.00231 193.709 6.92087 194.016 6.75799C194.326 6.59132 194.557 6.36216 194.709 6.07049C194.864 5.77504 194.942 5.43602 194.942 5.05344C194.942 4.66708 194.864 4.32996 194.709 4.04208C194.557 3.75041 194.326 3.52504 194.016 3.36594C193.705 3.20307 193.311 3.12163 192.834 3.12163H191.175V12.7466H188.714Z" fill="#001935"/>
</svg>