<svg width="195" height="16" viewBox="0 0 195 16" fill="none" xmlns="http://www.w3.org/2000/svg">
<path d="M0 15.6935V0.306473H11.4271V3.44518H3.9002V6.89036H10.566V9.96565H3.9002V15.6935H0Z" fill="white"/>
<path d="M13.5849 15.6935V0.306473H17.5155V15.6935H13.5849Z" fill="white"/>
<path d="M20.7065 15.6935V0.306473H26.9975C29.0303 0.306473 30.6276 0.732717 31.7892 1.5852C32.9508 2.43065 33.5316 3.70938 33.5316 5.4214C33.5316 7.09115 32.9474 8.36284 31.7791 9.23646C30.6107 10.1101 29.0135 10.568 26.9874 10.6103H24.6067V15.6935H20.7065ZM24.5662 7.61955H26.8962C27.8485 7.61955 28.5441 7.43285 28.9831 7.05945C29.422 6.679 29.6415 6.14707 29.6415 5.46367C29.6483 4.71687 29.4322 4.18142 28.9932 3.85733C28.561 3.5262 27.862 3.36063 26.8962 3.36063H24.5662V7.61955ZM30.0164 15.6935L26.0351 8.60238L30.1784 8.61295L34.4433 15.6935H30.0164Z" fill="white"/>
<path d="M36.1858 15.6935V0.306473H47.7952V3.44518H40.0556V6.24571H46.7518V9.321H40.0556V12.576H47.9168V15.6935H36.1858Z" fill="white"/>
<path d="M50.2468 15.6935V0.306473H57.0746C59.0467 0.306473 60.5663 0.73624 61.6333 1.59577C62.7004 2.45531 63.2339 3.77631 63.2339 5.55878C63.2339 7.32717 62.7004 8.65874 61.6333 9.5535C60.573 10.4412 59.0501 10.871 57.0645 10.8428H54.147V15.6935H50.2468ZM54.147 7.79921H56.6998C57.6183 7.79921 58.2903 7.62307 58.7158 7.27081C59.1413 6.91149 59.354 6.34434 59.354 5.56935C59.354 4.79436 59.1413 4.23426 58.7158 3.88904C58.2903 3.54381 57.6183 3.3712 56.6998 3.3712H54.147V7.79921Z" fill="white"/>
<path d="M65.3208 15.6935V0.306473H71.6118C73.6446 0.306473 75.2418 0.732717 76.4035 1.5852C77.5651 2.43065 78.1459 3.70938 78.1459 5.4214C78.1459 7.09115 77.5617 8.36284 76.3933 9.23646C75.2249 10.1101 73.6277 10.568 71.6016 10.6103H69.221V15.6935H65.3208ZM69.1805 7.61955H71.5105C72.4627 7.61955 73.1583 7.43285 73.5973 7.05945C74.0363 6.679 74.2558 6.14707 74.2558 5.46367C74.2626 4.71687 74.0464 4.18142 73.6075 3.85733C73.1752 3.5262 72.4762 3.36063 71.5105 3.36063H69.1805V7.61955ZM74.6306 15.6935L70.6494 8.60238L74.7927 8.61295L79.0576 15.6935H74.6306Z" fill="white"/>
<path d="M80.1618 8.31704V7.68296C80.1618 5.06209 80.8878 3.12814 82.3399 1.88111C83.7986 0.627037 85.6761 0 87.9724 0C90.2686 0 92.1596 0.627037 93.6454 1.88111C95.1312 3.12814 95.8741 5.06209 95.8741 7.68296V8.31704C95.8741 10.9379 95.1312 12.8754 93.6454 14.1295C92.1596 15.3765 90.2686 16 87.9724 16C85.6829 16 83.8088 15.3765 82.35 14.1295C80.8912 12.8754 80.1618 10.9379 80.1618 8.31704ZM84.1735 8.61295C84.1735 10.1982 84.5179 11.3043 85.2068 11.9313C85.9024 12.5583 86.8242 12.8719 87.9724 12.8719C89.1272 12.8719 90.0626 12.5583 90.7785 11.9313C91.5011 11.3043 91.8624 10.1982 91.8624 8.61295V7.37649C91.8624 5.79833 91.5045 4.69925 90.7886 4.07926C90.0727 3.45222 89.134 3.13871 87.9724 3.13871C86.8242 3.13871 85.9024 3.45222 85.2068 4.07926C84.5179 4.69925 84.1735 5.79833 84.1735 7.37649V8.61295Z" fill="white"/>
<path d="M96.7655 3.44518V0.306473H110.563V3.44518H105.62V15.6935H101.729V3.44518H96.7655Z" fill="white"/>
<path d="M112.387 15.6935V0.306473H123.996V3.44518H116.256V6.24571H122.953V9.321H116.256V12.576H124.118V15.6935H112.387Z" fill="white"/>
<path d="M125.809 8.31704V7.68296C125.809 5.10436 126.519 3.18098 127.937 1.91281C129.362 0.637605 131.239 0 133.569 0C135.683 0 137.365 0.450903 138.614 1.35271C139.864 2.24747 140.549 3.69177 140.671 5.6856L140.681 6.03435H136.7L136.689 5.62219C136.629 4.7063 136.308 4.06517 135.727 3.69881C135.146 3.32541 134.397 3.13871 133.478 3.13871C132.371 3.13871 131.486 3.46279 130.824 4.11096C130.162 4.75209 129.831 5.78776 129.831 7.21797V8.78203C129.831 10.3602 130.159 11.4381 130.814 12.0159C131.469 12.5865 132.364 12.8719 133.498 12.8719C134.626 12.8719 135.44 12.6358 135.94 12.1638C136.44 11.6847 136.693 11.0859 136.7 10.3672L136.71 9.97622H140.691V10.3567C140.671 12.2026 140.022 13.6046 138.746 14.5627C137.476 15.5209 135.751 16 133.569 16C131.233 16 129.355 15.373 127.937 14.1189C126.519 12.8578 125.809 10.9238 125.809 8.31704Z" fill="white"/>
<path d="M140.772 3.44518V0.306473H154.57V3.44518H149.626V15.6935H145.736V3.44518H140.772Z" fill="white"/>
<path d="M156.383 15.6935V0.306473H160.314V15.6935H156.383Z" fill="white"/>
<path d="M162.866 8.31704V7.68296C162.866 5.06209 163.592 3.12814 165.044 1.88111C166.503 0.627037 168.381 0 170.677 0C172.973 0 174.864 0.627037 176.35 1.88111C177.836 3.12814 178.579 5.06209 178.579 7.68296V8.31704C178.579 10.9379 177.836 12.8754 176.35 14.1295C174.864 15.3765 172.973 16 170.677 16C168.387 16 166.513 15.3765 165.055 14.1295C163.596 12.8754 162.866 10.9379 162.866 8.31704ZM166.878 8.61295C166.878 10.1982 167.222 11.3043 167.911 11.9313C168.607 12.5583 169.529 12.8719 170.677 12.8719C171.832 12.8719 172.767 12.5583 173.483 11.9313C174.206 11.3043 174.567 10.1982 174.567 8.61295V7.37649C174.567 5.79833 174.209 4.69925 173.493 4.07926C172.777 3.45222 171.839 3.13871 170.677 3.13871C169.529 3.13871 168.607 3.45222 167.911 4.07926C167.222 4.69925 166.878 5.79833 166.878 7.37649V8.61295Z" fill="white"/>
<path d="M181.131 15.6935V0.306473H185.082L190.684 8.60238C190.887 8.91237 191.09 9.28226 191.292 9.71202C191.495 10.1347 191.637 10.4659 191.718 10.7054H191.839C191.806 10.4588 191.772 10.1805 191.738 9.87054C191.711 9.56055 191.697 9.2576 191.697 8.96169V0.306473H195V15.6935H190.928L185.386 7.60898C185.136 7.22149 184.924 6.81286 184.748 6.38309C184.572 5.94628 184.458 5.61163 184.404 5.37913H184.262C184.296 5.63276 184.329 5.9181 184.363 6.23514C184.397 6.55218 184.414 6.85513 184.414 7.14399V15.6935H181.131Z" fill="white"/>
</svg>
